<?xml version="1.0" encoding="utf-8"?>
<!-- Generator: Adobe Illustrator 21.0.0, SVG Export Plug-In . SVG Version: 6.00 Build 0)  -->
<svg version="1.1" id="camp" xmlns="http://www.w3.org/2000/svg" xmlns:xlink="http://www.w3.org/1999/xlink" x="0px" y="0px"
	 viewBox="0 0 10 10" style="enable-background:new 0 0 10 10;" xml:space="preserve">
<style type="text/css">
	.st0{fill:none;stroke:#197F2B;stroke-width:1.046;stroke-linecap:square;stroke-miterlimit:10;}
	
		.st1{fill:none;stroke:#FFFFFF;stroke-width:0.4184;stroke-linecap:square;stroke-miterlimit:10;stroke-dasharray:0.4184,0.8369,2.0922,0.8369;}
</style>
<path class="st0" d="M1.1,8.6C1.9,8.9,2.6,9,3.4,9c1.5,0.1,3.1,0.1,4-0.6C8,7.8,8.5,7.2,8.7,6.5C9.1,5.8,8.5,5.3,8,4.7
	c-1.3-1.3-2.1-2.5-0.8-4"/>
<path class="st1" d="M1.1,8.6C1.9,8.9,2.6,9,3.4,9c1.5,0.1,3.1,0.1,4-0.6C8,7.8,8.5,7.2,8.7,6.5C9.1,5.8,8.5,5.3,8,4.7
	c-1.3-1.3-2.1-2.5-0.8-4"/>
</svg>
