<?xml version="1.0" encoding="utf-8"?>
<!-- Generator: Adobe Illustrator 21.0.0, SVG Export Plug-In . SVG Version: 6.00 Build 0)  -->
<svg version="1.1" id="camp" xmlns="http://www.w3.org/2000/svg" xmlns:xlink="http://www.w3.org/1999/xlink" x="0px" y="0px"
	 viewBox="0 0 10 10" style="enable-background:new 0 0 10 10;" xml:space="preserve">
<style type="text/css">
	.st0{fill:#51330B;}
	.st1{fill:#22892E;}
	.st2{fill:#233333;}
	.st3{fill:#6D9A9E;}
</style>
<g>
	<path class="st0" d="M3.5,4.3C3.5,4.2,3.3,4.1,3.1,4.1c0.4,0.2,0.5,0.7,0.8,1c0.3,0.5,0.7,0.8,1.2,1C4.9,5.8,4.7,5.7,4.5,5.5
		C4.1,5.2,3.9,4.9,4.1,4.4c0.1-0.1,0.2-0.1,0.2-0.3C4.2,4.3,4,4.4,3.9,4.5c0,0-0.1,0.1-0.1,0c0,0,0-0.1-0.1-0.1c0-0.4-0.1-0.7-0.2-1
		C3.4,3.7,3.5,4,3.5,4.3z"/>
	<path class="st1" d="M2.9,1.6c0.2-0.9,0.9-1.5,1.5-1.4s0.9,1.1,0.6,2S4.1,3.8,3.5,3.7S2.6,2.6,2.9,1.6z"/>
	<path class="st1" d="M1.4,3.5C1.6,3.1,2.1,3,2.6,3.2s0.8,0.6,0.7,1S2.6,4.6,2.1,4.4S1.3,3.8,1.4,3.5z"/>
	<path class="st1" d="M4.6,3.3c0.5-0.3,1-0.3,1.1,0.1S5.7,4.2,5.2,4.5c-0.5,0.3-1,0.3-1.1-0.1C3.9,4.1,4.2,3.6,4.6,3.3z"/>
</g>
<g>
	<path class="st2" d="M2.3,7.2c0.5,0,0.8,0.6,0.9,0.8s0.5,0.4,0.5,0.9c0,0.4-0.4,0.6-0.5,0.5C3,9.3,2.6,9.2,2.3,9.2S1.8,9.3,1.4,9.3
		c-0.1,0-0.5-0.3-0.5-0.5c0-0.4,0.4-0.8,0.5-0.9C1.6,7.7,1.8,7.2,2.3,7.2z M1.8,7C1.6,7,1.3,6.8,1.3,6.5c0-0.4,0.1-0.6,0.4-0.6
		S2.1,6,2.2,6.3C2.3,6.5,2.1,7,1.8,7z M1.1,7.8c-0.1,0-0.4-0.1-0.5-0.4s0-0.6,0.1-0.6s0.5,0.1,0.6,0.4S1.3,7.7,1.1,7.8z M2.8,7
		C2.6,7,2.5,6.7,2.5,6.4C2.5,6,2.7,5.8,3,5.9c0.3,0,0.4,0.4,0.4,0.6S3.1,7,2.8,7z M3.6,7.8C3.4,7.7,3.2,7.4,3.4,7
		C3.5,6.8,3.7,6.7,4,6.7c0.3,0.1,0.3,0.5,0.1,0.8C4,7.7,3.7,7.8,3.6,7.8z"/>
</g>
<g>
	<ellipse transform="matrix(0.5594 -0.8289 0.8289 0.5594 -3.7222 8.251)" class="st3" cx="5.9" cy="7.6" rx="2.2" ry="0.9"/>
	<polygon class="st3" points="7.5,5.3 6.7,3.6 6.9,6.2 9.8,5.4 	"/>
</g>
</svg>
