<?xml version="1.0" encoding="utf-8"?>
<!-- Generator: Adobe Illustrator 21.0.0, SVG Export Plug-In . SVG Version: 6.00 Build 0)  -->
<svg version="1.1" id="camp" xmlns="http://www.w3.org/2000/svg" xmlns:xlink="http://www.w3.org/1999/xlink" x="0px" y="0px"
	 viewBox="0 0 10 10" style="enable-background:new 0 0 10 10;" xml:space="preserve">
<style type="text/css">
	.st0{fill:#2ABADB;}
	.st1{fill:#3A2621;}
	.st2{fill:#55A500;}
</style>
<path class="st0" d="M9.8,4C9.5,5,8.5,5.8,7.4,6.2c-1,0.4-2,0.3-3.2,0.3S2.1,6.3,1.1,6.6c-0.4,0-0.8,0.1-1,0.4
	C0.6,7.8,1.2,8.6,2,9.1C3.6,8,6,8.8,7.7,7.8c1.1-0.6,1.6-2,2-3.3C9.8,4.4,10,4.3,9.8,4z"/>
<g>
	<path class="st1" d="M5.4,6.2c0-0.1,0.1-0.3,0.1-0.4C5.8,5.3,6.2,5,6.3,4.5C6,4.2,5.7,4.5,5.5,5c0-0.3,0-0.6,0-0.9
		c-0.3,0.6-0.4,1.3-1,1.1c-0.1-0.1-1-0.9-1-1.1c0,0.9,0.9,1.3,0.9,2c0,2.7-0.1,3.5-0.1,3.5c0.3,0,0.8,0.1,0.9-0.1
		c0.3-0.4,0-1.1,0-1.8C5.3,7.3,5.3,6.7,5.4,6.2z"/>
	<path class="st2" d="M8.5,1.9C8.3,1.8,8.1,1.6,7.8,1.5c-0.3,0-1.3,0-1.3,0.6c0-0.4-0.3-0.9-0.8-1c-0.3-0.4-0.6-0.3-1,0
		c0-0.4-0.1-0.9-0.9-0.9C3.5,0.2,2.8,1,2.8,1C2.4,1,2,1.1,1.7,1.4C1.2,1.5,1.1,1.9,1.2,2.1c0,0.1,0.9,0.8,0.9,0.8
		C1.9,3.5,1.9,4.2,2.3,4.7c0.4,0.3,0.9,0.1,1.3,0l1-0.3c0.3,0.1,0.6,0.3,0.9,0.3c0.1,0,0.4-0.1,0.6-0.1c0.1-0.1,0.1,0.3,0.3,0.3
		C6.6,5,6.7,5.2,7.2,5.2c0.4,0,0.9-0.6,0.8-1c0.3,0,0.8,0,1-0.3c0.3-0.3,0.4-0.6,0.4-1c0-0.3-0.1-0.6-0.4-0.8H8.7
		C8.6,2,8.6,2,8.5,1.9C8.6,1.9,8.5,1.9,8.5,1.9z"/>
</g>
</svg>
