<?xml version="1.0" encoding="utf-8"?>
<!-- Generator: Adobe Illustrator 21.0.0, SVG Export Plug-In . SVG Version: 6.00 Build 0)  -->
<svg version="1.1" id="camp" xmlns="http://www.w3.org/2000/svg" xmlns:xlink="http://www.w3.org/1999/xlink" x="0px" y="0px"
	 viewBox="0 0 10 10" style="enable-background:new 0 0 10 10;" xml:space="preserve">
<style type="text/css">
	.st0{fill:#4D0713;}
	.st1{fill:#8A5F15;}
</style>
<g transform="translate(0,-280.06665)">
	<path d="M2.6,280.8c-0.8,0-1.4,0.6-1.4,1.4c0,0.8,0.6,1.4,1.4,1.4s1.4-0.6,1.4-1.4C3.8,281.4,3.2,280.8,2.6,280.8z"/>
	<path d="M2.6,283.6c-1.4,0-2.4,1.1-2.4,2.4v0.3c0,0.2,0.2,0.2,0.2,0.2l0,0h4.4c0.2,0,0.2-0.2,0.2-0.2l0,0v-0.3
		C4.8,284.9,3.8,283.6,2.6,283.6z"/>
</g>
<g transform="translate(0,-280.06665)">
	<path d="M7.6,280.8c-0.8,0-1.4,0.6-1.4,1.4c0,0.8,0.6,1.4,1.4,1.4s1.4-0.6,1.4-1.4C8.8,281.4,8.2,280.8,7.6,280.8z"/>
	<path d="M7.6,283.6c-1.4,0-2.4,1.1-2.4,2.4v0.3c0,0.2,0.2,0.2,0.2,0.2l0,0h4.4c0.2,0,0.2-0.2,0.2-0.2l0,0v-0.3
		C10,284.7,8.8,283.6,7.6,283.6z"/>
</g>
<circle class="st0" cx="3.5" cy="8.6" r="0.5"/>
<circle class="st0" cx="6.6" cy="8.6" r="0.5"/>
<circle class="st0" cx="5" cy="8" r="0.5"/>
<circle class="st0" cx="1.9" cy="8" r="0.5"/>
<circle class="st0" cx="8.2" cy="8" r="0.5"/>
<path class="st1" d="M9.6,7.5c-0.5,0-0.7,0.4-0.9,0.8C8.5,8.6,8.4,8.9,8.1,8.9c-0.3,0-0.5-0.3-0.7-0.6C7.2,7.9,7,7.5,6.5,7.5
	c-0.5,0-0.7,0.4-0.9,0.8C5.5,8.6,5.3,8.9,5,8.9c-0.3,0-0.5-0.3-0.7-0.6C4.1,7.9,3.9,7.5,3.5,7.5C3,7.5,2.8,7.9,2.6,8.3
	C2.4,8.6,2.2,8.9,1.9,8.9c-0.3,0-0.5-0.3-0.7-0.6C1.1,7.9,0.9,7.5,0.4,7.5c-0.1,0-0.1,0.1-0.1,0.1s0.1,0.1,0.1,0.1
	c0.3,0,0.5,0.3,0.7,0.6c0.2,0.4,0.4,0.8,0.9,0.8c0.5,0,0.7-0.4,0.9-0.8C3,8.1,3.2,7.8,3.5,7.8c0.3,0,0.5,0.3,0.7,0.6
	C4.3,8.8,4.5,9.2,5,9.2c0.5,0,0.7-0.4,0.9-0.8C6,8.1,6.2,7.8,6.5,7.8c0.3,0,0.5,0.3,0.7,0.6c0.2,0.4,0.4,0.8,0.9,0.8
	c0.5,0,0.7-0.4,0.9-0.8c0.2-0.3,0.3-0.6,0.7-0.6c0.1,0,0.1-0.1,0.1-0.1S9.7,7.5,9.6,7.5z"/>
</svg>
