<?xml version="1.0" encoding="utf-8"?>
<!-- Generator: Adobe Illustrator 21.0.0, SVG Export Plug-In . SVG Version: 6.00 Build 0)  -->
<svg version="1.1" id="camp" xmlns="http://www.w3.org/2000/svg" xmlns:xlink="http://www.w3.org/1999/xlink" x="0px" y="0px"
	 viewBox="0 0 10 10" style="enable-background:new 0 0 10 10;" xml:space="preserve">
<style type="text/css">
	.st0{fill:#373F24;}
	.st1{fill:#754F41;}
	.st2{fill:none;stroke:#313D11;stroke-width:0.3857;stroke-linecap:round;stroke-miterlimit:10;}
	.st3{fill:#235603;}
	.st4{fill:#313D11;}
	.st5{fill:#B8C191;}
	.st6{fill:#139922;}
</style>
<g>
	<g>
		<path class="st0" d="M9,6.4L6.8,4.3C6.6,3.9,6.3,3.9,6.3,3.9h-3c0,0-0.3,0-0.5,0.4L0.6,6.4c0,0-0.3,0.3,0,0.7l2.6,2.3v0.4h3.3V9.4
			L9,7.1C9.4,6.7,9,6.4,9,6.4z M2.4,7.7c0,0-0.4-0.7-0.4-0.8L1.8,6.7l1.4-1.1l0,0v2.7C3.2,8.4,2.9,8.2,2.4,7.7z M7.7,6.9
			c0,0.1-0.4,0.8-0.4,0.8C6.7,8.2,6.4,8.4,6.4,8.4V5.6c0-0.1,0,0,0,0l1.4,1.1L7.7,6.9z"/>
		<path class="st1" d="M6,2.6c0,0.7-0.5,1.2-1.2,1.2S3.6,3.2,3.6,2.6s0.5-0.7,1.2-0.7S6,1.9,6,2.6z"/>
	</g>
	<path class="st2" d="M2.7,1.8c1.5-0.4,2.9-0.4,4.4,0"/>
	<path class="st3" d="M6,5.4c0,0-0.5,0.5-0.5,0.8c0,0.4,0.4,0.7,0.5,0.7v0.3c0,0,0,0.1,0.1,0.1s0,0,0-0.1V6.9
		c0.1-0.1,0.5-0.4,0.5-0.7C6.6,5.8,6.2,5.4,6,5.4C6,5.2,6,5.2,6,5.4z"/>
	<path class="st4" d="M6.3,1.3c0,0.6-0.7,0.3-1.5,0.3S3.4,1.9,3.4,1.3S4,0.1,4.8,0.1S6.3,0.6,6.3,1.3z"/>
	<polygon class="st5" points="4.6,5.2 2.5,6 2.9,3.6 3.7,3.6 	"/>
	<polygon class="st5" points="4.8,5.2 7,6 6.6,3.6 5.8,3.6 	"/>
	<polygon class="st5" points="2.5,9.9 4.6,9.9 4.6,5.2 2.5,6 	"/>
	<polygon class="st5" points="7,9.9 4.8,9.9 4.8,5.2 7,6 	"/>
	<circle class="st6" cx="5.9" cy="5.5" r="0.5"/>
</g>
</svg>
