<?xml version="1.0" encoding="utf-8"?>
<!-- Generator: Adobe Illustrator 21.0.0, SVG Export Plug-In . SVG Version: 6.00 Build 0)  -->
<svg version="1.1" id="camp" xmlns="http://www.w3.org/2000/svg" xmlns:xlink="http://www.w3.org/1999/xlink" x="0px" y="0px"
	 viewBox="0 0 10 10" style="enable-background:new 0 0 10 10;" xml:space="preserve">
<style type="text/css">
	.st0{fill:#543012;}
	.st1{fill:none;stroke:#49AA27;stroke-width:0.6291;stroke-miterlimit:10;}
	.st2{fill:none;stroke:#49AA27;stroke-width:0.7994;stroke-miterlimit:10;}
</style>
<g>
	<g transform="translate(0,-952.36218)">
		<path class="st0" d="M6.7,952.8L6.7,952.8L6.7,952.8l-2.7,2c-0.1,0-0.1,0.1,0,0.1c0,0.1,0.1,0.1,0.1,0l0.6-0.4v3h1.4v-1.8h1.3v1.8
			h1.4v-3l0.6,0.4c0.1,0.1,0.1,0,0.1,0c0-0.1,0-0.1,0-0.1L6.7,952.8C6.9,952.8,6.7,952.8,6.7,952.8z"/>
	</g>
	<line class="st1" x1="4" y1="2.8" x2="6.9" y2="0.5"/>
	<line class="st1" x1="9.6" y1="2.8" x2="6.5" y2="0.5"/>
</g>
<g>
	<g transform="translate(0,-952.36218)">
		<path class="st0" d="M3.6,955.6L3.6,955.6C3.6,955.6,3.5,955.6,3.6,955.6l-3.4,2.7c-0.1,0-0.1,0.1,0,0.3c0,0.1,0.3,0.1,0.3,0
			l0.7-0.6v4h1.7v-2.4h1.6v2.4h1.7v-4l0.7,0.6c0.1,0.1,0.3,0,0.3,0c0-0.1,0-0.3,0-0.3L3.6,955.6C3.8,955.6,3.6,955.6,3.6,955.6z"/>
	</g>
	<line class="st2" x1="0.2" y1="6.2" x2="3.8" y2="3.4"/>
	<line class="st2" x1="7" y1="6.2" x2="3.4" y2="3.4"/>
</g>
</svg>
