<?xml version="1.0" encoding="utf-8"?>
<!-- Generator: Adobe Illustrator 21.0.0, SVG Export Plug-In . SVG Version: 6.00 Build 0)  -->
<svg version="1.1" id="camp" xmlns="http://www.w3.org/2000/svg" xmlns:xlink="http://www.w3.org/1999/xlink" x="0px" y="0px"
	 viewBox="0 0 10 10" style="enable-background:new 0 0 10 10;" xml:space="preserve">
<path d="M9.6,5.3L7.5,1.9C7.2,1.6,6.9,1.5,6.6,1.5c-0.5,0-1,0.4-1,0.8l0,0v0.5C5.7,3,5.7,3,5.5,3H4.5C4.3,3,4.3,3,4.3,2.9V2.3
	c0-0.4-0.3-0.8-0.7-1c-0.4-0.1-0.8,0-1,0.4L0.4,5.3l0,0c-0.5,1-0.3,2.3,0.7,3s2.3,0.3,2.9-0.7C4,7.5,4,7.4,4.2,7.2
	c0-0.1,0.1-0.1,0.1-0.1h1.4c0.1,0,0.1,0,0.1,0.1C6.2,8.3,7.3,9,8.4,8.6S10.2,7.1,9.8,6C9.8,5.7,9.8,5.4,9.6,5.3z M2.1,7.6
	c-0.7,0-1.2-0.5-1.2-1.2s0.5-1.2,1.2-1.2s1.2,0.5,1.2,1.2C3.4,7.1,2.8,7.6,2.1,7.6L2.1,7.6z M5,6.3c-0.3,0-0.4-0.1-0.4-0.4
	c0-0.3,0.1-0.4,0.4-0.4s0.4,0.1,0.4,0.4l0,0C5.4,6.1,5.3,6.3,5,6.3z M7.9,7.6c-0.7,0-1.2-0.5-1.2-1.2s0.5-1.2,1.2-1.2
	c0.7,0.1,1.2,0.7,1.2,1.2S8.6,7.6,7.9,7.6L7.9,7.6z"/>
</svg>
